<svg version="1.1" xmlns="http://www.w3.org/2000/svg" viewBox="0 0 337.5999755859375 332.4174240833422" width="337.5999755859375" height="332.4174240833422">
  <!-- svg-source:excalidraw -->
  
  <defs>
    <style class="style-fonts">
      @font-face {
        font-family: "Virgil";
        src: url("https://excalidraw.com/Virgil.woff2");
      }
      @font-face {
        font-family: "Cascadia";
        src: url("https://excalidraw.com/Cascadia.woff2");
      }
      @font-face {
        font-family: "Assistant";
        src: url("https://excalidraw.com/Assistant-Regular.woff2");
      }
    </style>
    
  </defs>
  <g stroke-linecap="round" transform="translate(123.79994201660156 10) rotate(0 47.99998474121094 48.41739356576409)"><path d="M41.53 -0.57 C48.86 -2.35, 59.19 -0.16, 66.52 3.26 C73.85 6.68, 80.68 13.33, 85.51 19.96 C90.33 26.6, 94.51 35.24, 95.46 43.07 C96.4 50.9, 94.35 59.62, 91.19 66.94 C88.03 74.26, 82.64 82.15, 76.5 87 C70.36 91.86, 62.06 95.19, 54.34 96.09 C46.61 96.99, 37.76 95.62, 30.15 92.4 C22.54 89.18, 13.6 83.02, 8.66 76.78 C3.73 70.54, 1.42 62.92, 0.56 54.99 C-0.3 47.05, 0.28 36.87, 3.5 29.17 C6.72 21.47, 12.6 13.47, 19.89 8.76 C27.19 4.05, 41.58 2.22, 47.28 0.89 C52.98 -0.44, 54.17 0.18, 54.1 0.76 M68.22 5.08 C75.15 7.07, 81.3 12.39, 85.65 18.41 C90.01 24.43, 93.35 32.92, 94.36 41.2 C95.37 49.49, 94.87 60.29, 91.7 68.13 C88.53 75.97, 81.82 83.52, 75.35 88.25 C68.87 92.98, 60.51 95.76, 52.85 96.5 C45.19 97.24, 36.53 95.96, 29.39 92.7 C22.24 89.44, 14.62 83.57, 9.97 76.94 C5.32 70.32, 2.63 60.67, 1.5 52.95 C0.38 45.23, 0.33 37.78, 3.23 30.63 C6.13 23.49, 12.29 14.94, 18.9 10.07 C25.52 5.2, 34.7 2.58, 42.92 1.41 C51.14 0.25, 64.39 2.45, 68.22 3.07 C72.05 3.69, 66.32 4.31, 65.9 5.14" stroke="#1e1e1e" stroke-width="2" fill="none"></path></g><g transform="translate(163.58993692838112 42.42025668281701) rotate(0 8.268875122070312 15.760869565217376)"><text x="8.268875122070312" y="0" font-family="Virgil, Segoe UI Emoji" font-size="25.21739130434781px" fill="#1e1e1e" text-anchor="middle" style="white-space: pre;" direction="ltr" dominant-baseline="text-before-edge">A</text></g><g stroke-linecap="round" transform="translate(231.60000610351562 118.38250267447029) rotate(0 47.99998474121094 48.41739356576409)"><path d="M32.62 3.02 C39.54 -0.08, 49.83 0.33, 57.52 1.69 C65.22 3.04, 72.68 6.07, 78.8 11.16 C84.91 16.25, 91.38 24.49, 94.19 32.24 C97 39.99, 97.2 49.69, 95.64 57.65 C94.08 65.61, 90.13 73.95, 84.85 80.02 C79.56 86.08, 71.53 91.28, 63.92 94.06 C56.31 96.84, 47.13 98.3, 39.17 96.69 C31.21 95.07, 22.27 89.86, 16.16 84.38 C10.05 78.89, 5.07 71.28, 2.52 63.76 C-0.03 56.24, -0.78 47.21, 0.87 39.25 C2.53 31.29, 6.36 22.3, 12.45 15.97 C18.53 9.65, 32.8 3.64, 37.37 1.28 C41.95 -1.07, 39.92 0.92, 39.88 1.82 M31.41 2.27 C38.1 -1.1, 47.26 -2.1, 55.2 -0.54 C63.14 1.03, 72.83 6.35, 79.04 11.65 C85.26 16.95, 89.73 23.82, 92.5 31.27 C95.27 38.71, 96.77 48.09, 95.65 56.33 C94.53 64.56, 91.02 74.46, 85.78 80.69 C80.54 86.92, 71.97 91.37, 64.21 93.72 C56.45 96.06, 47.22 96.04, 39.21 94.75 C31.21 93.47, 22.3 91.04, 16.19 86 C10.08 80.97, 5.13 72.14, 2.57 64.54 C0.01 56.93, -0.6 48.15, 0.83 40.38 C2.26 32.6, 5.97 23.99, 11.15 17.89 C16.32 11.8, 28.64 6.19, 31.86 3.83 C35.08 1.47, 30.09 3.02, 30.48 3.73" stroke="#1e1e1e" stroke-width="2" fill="none"></path></g><g transform="translate(270.49504251920143 150.8027593572873) rotate(0 9.163833618164062 15.760869565217376)"><text x="9.163833618164062" y="0" font-family="Virgil, Segoe UI Emoji" font-size="25.21739130434781px" fill="#1e1e1e" text-anchor="middle" style="white-space: pre;" direction="ltr" dominant-baseline="text-before-edge">B</text></g><g stroke-linecap="round" transform="translate(10 116.3824568981031) rotate(0 47.99998474121094 48.41739356576409)"><path d="M63.67 2.77 C71.09 4.53, 79.12 10.29, 84.21 16.32 C89.31 22.35, 92.74 31.23, 94.22 38.97 C95.71 46.71, 95.64 55.15, 93.14 62.76 C90.63 70.37, 85.09 78.95, 79.2 84.61 C73.3 90.27, 65.5 95.05, 57.77 96.71 C50.04 98.37, 40.49 97.28, 32.82 94.56 C25.16 91.83, 17.22 86.54, 11.78 80.35 C6.33 74.17, 1.69 65.19, 0.13 57.46 C-1.42 49.73, -0.19 41.6, 2.45 33.97 C5.09 26.35, 9.85 17.21, 15.95 11.69 C22.06 6.17, 31.02 2.19, 39.09 0.86 C47.15 -0.46, 60.04 3.21, 64.34 3.76 C68.63 4.31, 65.19 3.65, 64.84 4.15 M60.32 0.09 C67.92 1.52, 75.98 8.72, 81.84 14.5 C87.69 20.29, 93.49 26.98, 95.46 34.8 C97.43 42.62, 95.87 53.36, 93.65 61.43 C91.43 69.49, 87.79 77.63, 82.12 83.17 C76.46 88.71, 67.33 92.6, 59.66 94.66 C52 96.71, 43.78 97.46, 36.13 95.52 C28.48 93.58, 19.57 88.66, 13.75 83.02 C7.93 77.38, 3.34 69.34, 1.18 61.69 C-0.97 54.04, -1.43 44.9, 0.82 37.13 C3.06 29.37, 8.76 21.23, 14.68 15.11 C20.59 8.99, 28.5 2.6, 36.28 0.41 C44.06 -1.79, 57.51 1.48, 61.34 1.92 C65.17 2.36, 59.69 2.56, 59.24 3.06" stroke="#1e1e1e" stroke-width="2" fill="none"></path></g><g transform="translate(49.94125528775612 148.8027135809201) rotate(0 8.11761474609375 15.760869565217376)"><text x="8.11761474609375" y="0" font-family="Virgil, Segoe UI Emoji" font-size="25.21739130434781px" fill="#1e1e1e" text-anchor="middle" style="white-space: pre;" direction="ltr" dominant-baseline="text-before-edge">C</text></g><g stroke-linecap="round" transform="translate(122.39996337890625 225.58263695181404) rotate(0 47.99998474121094 48.41739356576409)"><path d="M67.49 3.86 C74.68 6.23, 81.36 12.7, 86.18 19.23 C91.01 25.77, 95.35 35.16, 96.43 43.09 C97.52 51.02, 95.89 59.58, 92.67 66.82 C89.45 74.06, 83.54 81.46, 77.09 86.53 C70.64 91.61, 61.97 96.22, 53.98 97.27 C46 98.32, 36.68 96.22, 29.17 92.83 C21.66 89.44, 13.66 83.51, 8.92 76.92 C4.18 70.32, 1.47 61.25, 0.73 53.26 C0 45.28, 1.57 36.31, 4.53 28.99 C7.5 21.67, 12.27 14.11, 18.53 9.34 C24.79 4.57, 32.92 0.73, 42.08 0.37 C51.24 0, 67.3 5.22, 73.47 7.16 C79.65 9.1, 79.71 11.3, 79.13 12 M41.99 0.19 C49.23 -1.36, 58.01 0.6, 65.28 3.75 C72.55 6.89, 80.72 12.83, 85.61 19.07 C90.5 25.32, 93.4 33.4, 94.6 41.22 C95.79 49.05, 95.89 58.47, 92.78 66.04 C89.68 73.6, 82.5 81.63, 75.96 86.64 C69.42 91.65, 61.17 95.09, 53.55 96.08 C45.93 97.07, 37.34 95.59, 30.23 92.59 C23.11 89.59, 15.99 84.22, 10.86 78.09 C5.72 71.97, 0.52 63.83, -0.58 55.83 C-1.67 47.83, 0.83 38, 4.28 30.08 C7.72 22.16, 14.01 13.28, 20.1 8.33 C26.19 3.37, 37.02 1.71, 40.81 0.35 C44.61 -1.01, 42.61 -0.7, 42.85 0.16" stroke="#1e1e1e" stroke-width="2" fill="none"></path></g><g transform="translate(160.62693949185768 258.00289363463105) rotate(0 9.831893920898438 15.760869565217376)"><text x="9.831893920898438" y="0" font-family="Virgil, Segoe UI Emoji" font-size="25.21739130434781px" fill="#1e1e1e" text-anchor="middle" style="white-space: pre;" direction="ltr" dominant-baseline="text-before-edge">D</text></g><g stroke-linecap="round"><g transform="translate(206.99989318847656 87.59991455078125) rotate(0 23.20001220703125 21.199989318847656)"><path d="M-0.22 -0.5 C7.57 6.75, 39.27 35.71, 47.01 42.92 M-1.8 -1.8 C5.87 5.14, 38.52 34, 46.38 41.07" stroke="#1e1e1e" stroke-width="2" fill="none"></path></g></g><mask></mask><g stroke-linecap="round"><g transform="translate(254.1999053955078 207.5998992919922) rotate(0 -21.20001220703125 22.399993896484375)"><path d="M0.38 -0.64 C-6.54 6.98, -34.35 37.17, -41.63 44.76 M-0.87 1.64 C-7.89 9.54, -35.51 38.84, -42.17 46.28" stroke="#1e1e1e" stroke-width="2" fill="none"></path></g></g><mask></mask><g stroke-linecap="round"><g transform="translate(233.39991760253906 165.1998748779297) rotate(0 -63.20001220703125 0)"><path d="M0.47 -0.64 C-20.74 -0.92, -105.17 -1.02, -126.2 -1.02 M-0.74 1.64 C-22.18 1.42, -106.14 0.2, -127.04 -0.02" stroke="#1e1e1e" stroke-width="2" fill="none"></path></g></g><mask></mask><g stroke-linecap="round"><g transform="translate(88.59989929199219 201.1998748779297) rotate(0 22.800003051757812 20)"><path d="M0.49 -0.25 C7.78 6.43, 36.86 34.57, 44.46 41.1 M-0.72 -1.42 C6.87 5.47, 38.86 32.7, 46.57 39.55" stroke="#1e1e1e" stroke-width="2" fill="none"></path></g></g><mask></mask></svg>